<svg width="130" height="40" viewBox="0 0 130 40" fill="none" xmlns="http://www.w3.org/2000/svg">
<g clip-path="url(#clip0_1521_34)">
<path d="M54.8858 15.3698V14.2602H51.7041V25.5256H54.8858V19.6811C54.8858 17.8576 55.7409 17.1377 57.9364 17.1178H58.3062V14.0991H57.9284C56.6259 14.115 55.6355 14.5247 54.8858 15.3698Z" fill="black"/>
<path d="M64.1863 14.0415C60.7818 14.0415 58.4014 16.4278 58.4014 19.8442V20.0053C58.4014 23.3223 60.8255 25.7305 64.1684 25.7305C67.5748 25.7305 69.9532 23.3442 69.9532 19.9457V19.7846C69.9512 16.4477 67.5271 14.0415 64.1863 14.0415ZM66.7098 19.8283V19.9695C66.7098 21.9283 65.7672 23.0976 64.1863 23.0976C62.5695 23.0976 61.6428 21.9581 61.6428 19.9695V19.8085C61.6428 17.8636 62.5934 16.7023 64.1863 16.7023C65.7791 16.7023 66.7098 17.8397 66.7098 19.8283Z" fill="black"/>
<path d="M81.0493 20.8524L79.2715 14.2622H76.6744L74.7315 20.8763L72.912 14.2622H69.5293L72.9756 25.5296H76.0241L77.8636 19.4206L79.5459 25.5296H82.5786L86.1123 14.2622H82.9504L81.0493 20.8524Z" fill="black"/>
<path d="M99.8918 15.0915V14.2622H90.5155V16.9389H95.2186L89.9727 24.762V25.5296H99.7307V22.8331H94.6677L99.8918 15.0915Z" fill="black"/>
<path d="M107.607 21.8726C107.55 22.1948 107.377 23.1732 105.559 23.1732C103.741 23.1732 103.199 21.9601 103.065 20.8008H110.741V19.7249C110.741 15.533 107.981 14.0415 105.398 14.0415C102.099 14.0415 99.7959 16.4278 99.7959 19.8442V20.0053C99.7959 23.4297 102.087 25.7305 105.499 25.7305C108.435 25.7305 110.33 24.3683 110.696 21.9939L110.761 21.5644H107.661L107.607 21.8726ZM103.157 18.4363C103.465 17.2432 104.264 16.567 105.398 16.567C106.661 16.567 107.349 17.1636 107.54 18.4363H103.157Z" fill="black"/>
<path d="M114.941 15.3698V14.2602H111.76V25.5256H114.941V19.6811C114.941 17.8576 115.796 17.1377 117.99 17.1178H118.36V14.0991H117.982C116.683 14.115 115.693 14.5247 114.941 15.3698Z" fill="black"/>
<path d="M121.927 21.4649C121.767 20.9815 121.69 20.4746 121.699 19.9655V19.8044C121.699 17.8596 122.651 16.6982 124.244 16.6982C124.569 16.6841 124.893 16.7389 125.196 16.8592C125.498 16.9796 125.771 17.1626 125.998 17.3962L128.038 15.3559C126.969 14.4826 125.624 14.0169 124.244 14.0415C120.837 14.0415 118.459 16.4278 118.459 19.8442V20.0053C118.439 21.3405 118.882 22.6415 119.714 23.6862L121.927 21.4649Z" fill="black"/>
<path d="M128.758 16.0859L126.535 18.3092C126.697 18.7976 126.776 19.3099 126.768 19.8245V19.9657C126.768 21.9245 125.823 23.0938 124.244 23.0938C123.912 23.1095 123.581 23.0541 123.272 22.9314C122.963 22.8086 122.685 22.6212 122.454 22.3819L120.418 24.4182C121.489 25.2906 122.835 25.7555 124.216 25.7307C127.621 25.7307 129.999 23.3443 129.999 19.9458V19.7847C130.024 18.4456 129.586 17.139 128.758 16.0859Z" fill="black"/>
<path d="M34.8006 0H4.97151C3.65298 0 2.38846 0.523782 1.45612 1.45612C0.523782 2.38846 0 3.65298 0 4.97151V34.8006C0 36.1191 0.523782 37.3836 1.45612 38.3159C2.38846 39.2483 3.65298 39.7721 4.97151 39.7721H34.8006C36.1191 39.7721 37.3836 39.2483 38.3159 38.3159C39.2483 37.3836 39.7721 36.1191 39.7721 34.8006V4.97151C39.7721 3.65298 39.2483 2.38846 38.3159 1.45612C37.3836 0.523782 36.1191 0 34.8006 0ZM9.94302 20.0849V19.8085C9.94302 13.9222 14.0395 9.81376 19.9039 9.81376C22.4752 9.81376 24.7283 10.647 26.4365 12.0768L22.9246 15.5906C22.1908 14.8091 21.1747 14.3875 19.9039 14.3875C17.1597 14.3875 15.529 16.3881 15.529 19.7389V20.0272C15.5155 20.9052 15.65 21.7791 15.9267 22.6124L12.1006 26.4385C10.7385 24.7541 9.94302 22.5706 9.94302 20.0928V20.0849ZM29.829 19.9815C29.829 25.8459 25.7325 29.9424 19.8681 29.9424C17.2969 29.9424 15.0398 29.1092 13.3316 27.6814L16.8375 24.1754C17.5773 24.9709 18.6094 25.4004 19.9039 25.4004C22.6243 25.4004 24.249 23.388 24.249 20.0153V19.7727C24.2649 18.8868 24.1304 18.0046 23.8513 17.1636L27.6794 13.3356C29.0416 15.0199 29.831 17.2134 29.831 19.6991L29.829 19.9815Z" fill="black"/>
</g>
<defs>
<clipPath id="clip0_1521_34">
<rect width="130" height="40" fill="white"/>
</clipPath>
</defs>
</svg>
