<?xml version="1.0" encoding="UTF-8" standalone="no"?>
<!DOCTYPE svg PUBLIC "-//W3C//DTD SVG 1.1//EN" "http://www.w3.org/Graphics/SVG/1.1/DTD/svg11.dtd">
<svg width="130" height="40" viewBox="0 0 130 40" version="1.1" xmlns="http://www.w3.org/2000/svg" xmlns:xlink="http://www.w3.org/1999/xlink" xml:space="preserve" xmlns:serif="http://www.serif.com/" style="fill-rule:evenodd;clip-rule:evenodd;stroke-linejoin:round;stroke-miterlimit:2;">
    <g>
        <g transform="matrix(0.956972,0,0,0.956972,2.79681,0.855655)">
            <g>
                <path d="M54.886,15.37L54.886,14.26L51.704,14.26L51.704,25.526L54.886,25.526L54.886,19.681C54.886,17.858 55.741,17.138 57.936,17.118L58.306,17.118L58.306,14.099L57.928,14.099C56.626,14.115 55.636,14.525 54.886,15.37Z" style="fill:white;fill-rule:nonzero;"/>
                <path d="M64.186,14.041C60.782,14.041 58.401,16.428 58.401,19.844L58.401,20.005C58.401,23.322 60.826,25.731 64.168,25.731C67.575,25.731 69.953,23.344 69.953,19.946L69.953,19.785C69.951,16.448 67.527,14.041 64.186,14.041ZM66.71,19.828L66.71,19.97C66.71,21.928 65.767,23.098 64.186,23.098C62.57,23.098 61.643,21.958 61.643,19.97L61.643,19.809C61.643,17.864 62.593,16.702 64.186,16.702C65.779,16.702 66.71,17.84 66.71,19.828Z" style="fill:white;fill-rule:nonzero;"/>
                <path d="M81.049,20.852L79.272,14.262L76.674,14.262L74.732,20.876L72.912,14.262L69.529,14.262L72.976,25.53L76.024,25.53L77.864,19.421L79.546,25.53L82.579,25.53L86.112,14.262L82.95,14.262L81.049,20.852Z" style="fill:white;fill-rule:nonzero;"/>
                <path d="M99.892,15.092L99.892,14.262L90.516,14.262L90.516,16.939L95.219,16.939L89.973,24.762L89.973,25.53L99.731,25.53L99.731,22.833L94.668,22.833L99.892,15.092Z" style="fill:white;fill-rule:nonzero;"/>
                <path d="M107.607,21.873C107.55,22.195 107.377,23.173 105.559,23.173C103.741,23.173 103.199,21.96 103.065,20.801L110.741,20.801L110.741,19.725C110.741,15.533 107.981,14.041 105.398,14.041C102.099,14.041 99.796,16.428 99.796,19.844L99.796,20.005C99.796,23.43 102.087,25.731 105.499,25.731C108.435,25.731 110.33,24.368 110.696,21.994L110.761,21.564L107.661,21.564L107.607,21.873ZM103.157,18.436C103.465,17.243 104.264,16.567 105.398,16.567C106.661,16.567 107.349,17.164 107.54,18.436L103.157,18.436Z" style="fill:white;fill-rule:nonzero;"/>
                <path d="M114.941,15.37L114.941,14.26L111.76,14.26L111.76,25.526L114.941,25.526L114.941,19.681C114.941,17.858 115.796,17.138 117.99,17.118L118.36,17.118L118.36,14.099L117.982,14.099C116.683,14.115 115.693,14.525 114.941,15.37Z" style="fill:white;fill-rule:nonzero;"/>
                <path d="M121.927,21.465C121.767,20.982 121.69,20.475 121.699,19.966L121.699,19.804C121.699,17.86 122.651,16.698 124.244,16.698C124.569,16.684 124.893,16.739 125.196,16.859C125.498,16.98 125.771,17.163 125.998,17.396L128.038,15.356C126.969,14.483 125.624,14.017 124.244,14.041C120.837,14.041 118.459,16.428 118.459,19.844L118.459,20.005C118.439,21.341 118.882,22.642 119.714,23.686L121.927,21.465Z" style="fill:white;fill-rule:nonzero;"/>
                <path d="M128.758,16.086L126.535,18.309C126.697,18.798 126.776,19.31 126.768,19.825L126.768,19.966C126.768,21.924 125.823,23.094 124.244,23.094C123.912,23.11 123.581,23.054 123.272,22.931C122.963,22.809 122.685,22.621 122.454,22.382L120.418,24.418C121.489,25.291 122.835,25.756 124.216,25.731C127.621,25.731 129.999,23.344 129.999,19.946L129.999,19.785C130.024,18.446 129.586,17.139 128.758,16.086Z" style="fill:white;fill-rule:nonzero;"/>
                <path d="M34.801,0L4.972,0C3.653,0 2.388,0.524 1.456,1.456C0.524,2.388 0,3.653 0,4.972L0,34.801C0,36.119 0.524,37.384 1.456,38.316C2.388,39.248 3.653,39.772 4.972,39.772L34.801,39.772C36.119,39.772 37.384,39.248 38.316,38.316C39.248,37.384 39.772,36.119 39.772,34.801L39.772,4.972C39.772,3.653 39.248,2.388 38.316,1.456C37.384,0.524 36.119,0 34.801,0ZM9.943,20.093L9.943,19.809C9.943,13.922 14.04,9.814 19.904,9.814C22.475,9.814 24.728,10.647 26.437,12.077L22.925,15.591C22.191,14.809 21.175,14.387 19.904,14.387C17.16,14.387 15.529,16.388 15.529,19.739L15.529,20.027C15.515,20.905 15.65,21.779 15.927,22.612L12.101,26.439C10.739,24.754 9.943,22.571 9.943,20.093ZM29.829,19.982C29.829,25.846 25.733,29.942 19.868,29.942C17.297,29.942 15.04,29.109 13.332,27.681L16.838,24.175C17.577,24.971 18.609,25.4 19.904,25.4C22.624,25.4 24.249,23.388 24.249,20.015L24.249,19.773C24.265,18.887 24.13,18.005 23.851,17.164L27.679,13.336C29.042,15.02 29.831,17.213 29.831,19.699L29.829,19.982Z" style="fill:white;fill-rule:nonzero;"/>
            </g>
        </g>
    </g>
</svg>
